Patient4_TMGait_0pt5_02_left_23_EMG.mot
version=1
nRows=33
nColumns=33
inDegrees=no
endheader
time	1LAddLong	2LGlutMax	3LGlutMed	4LIliopsoas	5LSemiMemb	6LBicFemLong	7LRecFem	8LVastMed	9LVastLat	10LGasMed	11LTibAnt	12lTibPost	13LPeroneusLong	14LSol	15LExtDigLong	16LFlexDigLong	17RAddLong	18RGlutMax	19RGlutMed	20RIliopsoas	21RSemiMemb	22RBicFemLong	23RRecFem	24RVastMed	25RVastLat	26RGasMed	27RTibAnt	28RTibPost	29RPeroneusLong	30RSol	31RExtDigLong	32RFlexDigLong
29.737	0.027466	0.53482	-0.12787	0.001526	0.077057	-0.020599	-0.10117	0.065765	0.055389	-0.032043	-0.20859	0.045776	0.009918	0.13473	0.29114	0.034485	0.14923	0.23483	-0.006104	0.35645	-0.061646	0.076141	0.54199	-0.014801	0.005341	-0.010071	0.055542	0.030823	0.022125	-0.097046	-0.001678	-0.009155
29.738	0.025177	0.58609	-0.09552	-0.004272	0.066071	-0.19852	-0.037842	-0.057526	0.20325	0.001984	-0.069885	0.036163	-0.16953	0.13565	0.3302	0.02655	0.13336	0.22018	0.029144	0.22278	-0.044556	0.12634	0.50888	0.030823	0.019836	-0.009613	0.056152	0.000305	-0.000305	-0.094147	0.000458	-0.014954
29.739	0.021667	0.62744	-0.10346	0.01236	0.034943	-0.38132	0.00412	0.015259	0.089874	0.014343	0.007324	0.05249	-0.18707	0.15671	0.30991	0.035248	0.096588	0.11444	-0.060425	0.12894	-0.025024	0.14069	0.4422	0.062408	0.016632	-0.010223	0.060577	0.007019	0.014343	-0.060425	-0.000763	-0.013885
29.74	0.01297	0.76202	-0.03418	-0.009155	-0.026703	-0.2475	-0.083771	0.000916	-0.062408	-0.017395	0.015106	0.046997	-0.071106	0.13809	0.14328	0.037537	0.045471	0.081635	-0.041962	0.040436	0.014191	0.18402	0.44662	0.14801	0.011292	-0.009155	0.057526	-0.009766	0.021362	-0.036621	0.010223	-0.013733
29.741	0.015717	0.86823	0.022583	0.006256	-0.046082	-0.15854	-0.21515	0.016632	-0.17044	0.011139	0.068665	0.04303	0.12146	0.077362	-0.25101	0.022583	0.023651	0.062408	-0.1091	-0.057678	0.016937	0.19867	0.44754	0.087891	0.002747	-0.007935	0.058746	-0.014343	0.037231	-0.050354	0.002594	-0.014038
29.742	0.021362	0.95017	0.064697	0.006256	-0.033569	-0.092926	-0.3331	0.003204	-0.13687	-0.016174	0.10803	0.050049	0.13825	-0.065155	-0.51025	0.023193	-0.014038	0.065002	-0.14725	-0.11444	0.004578	0.20813	0.45441	0.098572	0.002594	-0.013885	0.067444	-0.019226	0.028839	-0.051422	0.002289	-0.016785
29.743	0.033722	1.0272	0.040894	-0.000458	-0.027161	0.010529	-0.44373	0.002136	-0.079041	0.000305	0.083466	0.046387	0.063171	-0.13031	-0.51346	0.024414	-0.053864	-0.053558	-0.11734	-0.18341	-0.003204	0.22171	0.49652	0.012054	0.006714	-0.015411	0.058746	-0.016937	-0.012817	-0.07309	-0.001373	-0.014648
29.744	0.033722	1.0938	0.023193	0.006104	-0.030823	0.1297	-0.51163	0.00885	0.031433	0.054474	0.03006	0.041351	-0.007935	-0.13718	-0.36774	0.025635	-0.063629	-0.033569	-0.13153	-0.15182	0.002899	0.25467	0.48614	-0.004425	0.016174	-0.008545	0.075836	-0.017395	-0.017853	-0.067902	-0.001831	-0.018158
29.745	0.009766	1.1317	0.013275	0.025177	-0.079041	0.12772	-0.56168	0.002899	0.17044	0.046997	-0.10269	0.040588	-0.024261	-0.097351	-0.26032	0.028229	-0.045776	-0.07843	-0.17425	-0.1239	-0.000916	0.24612	0.46906	-0.044556	0.012512	-0.004425	0.054932	-0.01358	-0.023804	-0.059509	-0.000305	-0.006104
29.746	-0.002136	1.201	-0.054932	0.02533	-0.097504	0.17029	-0.37064	0.004425	0.15732	0.057678	-0.10605	0.039673	-0.031738	-0.063324	-0.045776	0.023346	-0.028534	-0.14908	-0.21973	-0.11383	-0.025482	0.21515	0.50018	-0.033875	0.007629	-0.006256	0.065308	-0.013275	-0.026093	-0.091705	-0.001373	0.000458
29.747	-0.006256	1.2563	-0.027466	-0.001678	-0.10254	0.15121	-0.28671	0.003662	0.11307	0.059204	-0.093384	0.042572	-0.048523	-0.018768	0.09964	0.014038	0.006866	-0.16068	-0.22095	-0.12756	-0.035248	0.20371	0.49866	-0.077972	0.012207	-0.004883	0.049133	-0.013123	-0.020599	-0.16464	0.001984	-0.001678
29.748	-0.005035	1.357	-0.05661	0.014343	-0.065918	0.074005	-0.26901	0.003967	0.055237	0.036316	-0.14297	0.039673	-0.029144	-0.011597	0.13107	0.03067	0.023804	-0.16388	-0.079498	-0.088959	-0.05188	0.19653	0.48813	-0.067444	-0.016022	-0.004425	0.06134	-0.011292	-0.053558	-0.16403	-0.001526	-0.004272
29.749	-0.012207	1.403	-0.12756	0.007477	-0.073853	0.077209	-0.3215	0.000153	0.074005	0.028687	-0.15045	0.032349	0.008087	0.030212	0.20294	0.025177	0.057831	-0.17899	-0.032959	-0.080872	-0.063782	0.17822	0.53925	-0.081635	-0.006104	-0.005798	0.078125	-0.015869	-0.079041	-0.14175	-0.001373	-0.00412
29.75	-0.00824	1.252	-0.10757	-0.004578	-0.08728	0.031586	-0.26749	0.001373	0.005341	0.013733	-0.16205	0.030518	0.032349	0.089722	0.3241	0.042267	0.031128	-0.2327	0.084839	-0.11353	-0.066528	0.17242	0.50323	-0.082397	-0.023804	-0.00824	0.072327	-0.019226	-0.06134	-0.12802	0.000916	-0.001221
29.751	-0.019836	1.2527	0.084534	0.012207	-0.087891	-0.013885	-0.17654	0.002441	-0.010223	-0.022278	-0.14771	0.021667	0.10284	0.1886	0.26428	0.038605	0.019073	-0.24078	-0.079498	-0.079651	-0.083008	0.15335	0.4892	-0.12436	-0.010986	-0.004578	0.051727	-0.012665	-0.052948	-0.10834	0.005341	-0.007935
29.752	-0.003967	1.2489	0.16419	-0.016022	0.024414	-0.010986	-0.13245	0.000458	0.013733	-0.031891	-0.036316	0.023499	0.097656	0.23331	0.63141	0.033264	0.002747	-0.31174	-0.13992	-0.019226	-0.077209	0.13565	0.47852	-0.12741	-0.017853	0.000458	0.061951	-0.016785	-0.02121	-0.086517	-0.001068	-0.001678
29.753	0.016785	1.2268	0.13916	-0.019226	0.1001	-0.080109	-0.18829	-0.007172	0.079498	-0.006714	0.36041	0.018463	-0.000153	0.16373	0.49789	0.045319	-0.029602	-0.3772	-0.095215	0.002594	-0.083771	0.14694	0.48019	-0.095673	-0.017395	-0.009155	0.052032	-0.011902	-0.010986	-0.092621	-0.001373	-0.010529
29.754	0.007629	1.0469	0.091858	-0.007019	0.056915	-0.030823	-0.25238	0.000305	0.1326	-0.001526	0.57281	0.013733	-0.045471	0.036926	0.085907	0.029144	-0.00946	-0.40832	-0.17822	0.005646	-0.090332	0.14755	0.45181	-0.066833	-0.023651	0.003815	0.069733	-0.013123	-0.018311	-0.093689	0	-0.022888
29.755	0.013275	0.88516	0.020294	0.00946	0.016022	-0.088043	-0.2385	0.011902	0.15472	0.021057	0.21378	0.009308	-0.067596	0.00351	-0.18356	0.022888	0.012512	-0.41931	-0.093842	-0.008545	-0.063629	0.16724	0.44571	-0.10147	-0.025177	0.00061	0.070343	-0.015564	-0.013275	-0.10254	0.001373	-0.020142
29.756	0.003967	0.75165	-0.061188	0.009766	0.06424	-0.032043	-0.22201	0.026245	0.060425	0.037994	-0.022888	-0.006256	-0.059662	-0.1181	-0.82855	0.009613	0.030212	-0.35797	-0.092926	0.039673	-0.072327	0.16098	0.45944	-0.085754	-0.020752	-0.000916	0.069733	-0.013275	-0.03006	-0.074921	-0.005493	-0.020142
29.757	-0.002899	0.53009	-0.12192	0.016479	0.018616	0.12451	-0.19882	0.033875	-0.070801	0.034027	0.24841	0.002594	-0.013428	-0.20432	-0.52643	0.003052	0.049896	-0.36209	-0.13092	0.073547	-0.077667	0.15595	0.46356	-0.054474	-0.018616	0.004883	0.070953	-0.012512	-0.017548	-0.066376	-0.003357	-0.017242
29.758	0.006409	0.37216	-0.16205	0.007782	-0.008087	0.093994	-0.26764	0.030212	-0.034485	0.018463	0.29602	0.004272	0.042877	-0.17853	-0.45898	0.002594	0.098877	-0.37643	-0.00061	0.02594	-0.061951	0.17364	0.41748	-0.094452	-0.014801	-0.002289	0.067749	-0.010834	-0.039673	-0.072937	-0.000916	-0.014648
29.759	0.008392	0.17105	-0.14664	0.022125	-0.000916	-0.12604	-0.39261	0.032501	-0.00061	0.019073	0.080414	0.00412	-0.018921	-0.15595	-0.21683	0.006561	0.15091	-0.27863	-0.051575	-0.009766	-0.056458	0.18036	0.34698	-0.08194	-0.003204	-0.005188	0.057373	-0.009003	-0.076294	-0.07309	0.002136	-0.00885
29.76	-0.002594	0.023193	-0.12421	0.002899	0.025024	-0.11795	-0.46295	-0.001984	0.24033	0.030975	-0.23468	-0.006866	-0.058899	-0.13687	-0.28412	0.001678	0.13641	-0.37582	-0.23529	0.049133	-0.064087	0.1738	0.3685	-0.14145	0.004272	-0.000458	0.032501	-0.010834	-0.12283	-0.082092	-0.000153	-0.006104
29.761	-0.008087	-0.062714	-0.066071	0.016022	-0.002747	-0.018463	-0.44113	-0.026398	0.43533	0.035706	-0.40085	-0.004883	-0.006409	-0.083313	-0.17868	-0.000458	0.048523	-0.47638	-0.28336	0.036011	-0.07843	0.18799	0.35767	-0.15701	0.006561	-0.00351	-0.021667	-0.005035	-0.14847	-0.084381	-0.009003	-0.011749
29.762	-0.021667	-0.12405	-0.005493	0.005798	-0.040283	0.020447	-0.29617	-0.02533	0.41794	0.01236	-0.21042	-0.005035	0.14435	-0.044403	-0.15701	0.015717	0.014038	-0.45425	-0.15579	0.084686	-0.092773	0.21286	0.30273	-0.13565	0.024109	-0.010834	0.01236	-0.008698	-0.098114	-0.094452	0.000153	-0.002441
29.763	-0.026093	-0.15137	0.007019	0.018311	-0.056915	0.020905	-0.15778	-0.020599	0.38834	0.010986	-0.00885	-0.003967	0.28671	-0.031281	-0.011139	0.005035	-0.033264	-0.50018	-0.16312	0.14114	-0.088501	0.20264	0.30075	-0.1265	0.031433	-0.001678	0.045013	-0.008392	0.016632	-0.10498	-0.002899	-0.011597
29.764	-0.004578	-0.21927	0.076599	0.012665	0.021057	0.036011	-0.14282	-0.003204	0.28137	0.012665	0.05188	-0.00946	0.14618	-0.026703	0.047913	-0.002594	-0.103	-0.61798	-0.02121	0.16892	-0.087891	0.22415	0.34027	-0.10086	0.042877	-0.009003	0.057678	-0.00412	0.076599	-0.13229	-0.004578	-0.004578
29.765	-0.004578	-0.23377	0.23697	-0.00412	0.038757	0.084076	-0.083313	0.019836	0.054016	0.014648	0.034637	-0.006714	-0.1828	-0.081177	0.077209	-0.001678	-0.16434	-0.6694	-0.11765	0.10025	-0.066528	0.22369	0.36362	-0.006866	0.045013	-0.008392	-0.005341	-0.00824	0.084534	-0.12695	-0.002899	-0.007477
29.766	-0.010529	-0.19104	0.15427	0.023804	-0.048676	0.20844	-0.023651	0.03006	-0.28122	0.00061	0.01709	-0.007629	-0.17807	-0.095673	0.057068	-0.00061	-0.159	-0.7579	-0.17868	0.027618	-0.048676	0.24628	0.36194	0.020752	0.025787	-0.00351	0.012817	-0.011139	0.046539	-0.10208	-0.00351	-0.007935
29.767	-0.004578	-0.11673	0.090179	0.021667	-0.031128	0.29755	-0.018158	0.026855	-0.31342	-0.012817	0.05188	-0.013733	-0.001221	-0.13611	0.031586	-0.000153	-0.12695	-0.82718	-0.11749	0.00824	-0.047302	0.23254	0.34515	0.033875	0.029144	-0.005493	-0.046082	-0.013733	-0.00412	-0.096893	-0.003204	-0.009155
29.768	-0.001526	-0.014496	0.044098	-0.005646	-0.09613	0.242	-0.051117	0.024109	-0.25009	0.013885	0.15259	-0.011597	0.040283	-0.095215	0.066986	0.002747	-0.12161	-0.89493	-0.11765	-0.002441	-0.030823	0.21545	0.40207	0.09201	0.03006	-0.013885	0.22598	-0.010376	-0.051117	-0.093384	-0.003357	-0.008087
29.769	-0.000153	0.10895	-0.025482	-0.003204	-0.083923	0.15121	-0.067444	-0.009003	-0.16083	0.036926	0.21194	-0.018768	-0.018768	-0.069733	0.10925	0.000916	-0.076752	-0.94696	-0.092316	-0.03891	-0.018616	0.18967	0.31647	0.12085	0.016479	-0.019073	0.63141	-0.004578	-0.050812	-0.10376	-0.004272	-0.005798
